HIERARCHY
ROOT hip
{
	OFFSET 0.000000 0.000000 0.000000
	CHANNELS 6 Xposition Yposition Zposition Xrotation Zrotation Yrotation 
	JOINT abdomen
	{
		OFFSET 0.000000 3.422050 0.000000
		CHANNELS 3 Xrotation Zrotation Yrotation 
		JOINT chest
		{
			OFFSET 0.000000 8.486693 -0.684411
			CHANNELS 3 Xrotation Zrotation Yrotation 
			JOINT neck
			{
				OFFSET 0.000000 10.266162 -0.273764
				CHANNELS 3 Xrotation Zrotation Yrotation 
				JOINT head
				{
					OFFSET 0.000000 3.148285 0.000000
					CHANNELS 3 Xrotation Zrotation Yrotation 
					End Site
					{
						OFFSET 0.000000 3.148289 0.000000
					}
				}
			}
			JOINT lCollar
			{
				OFFSET 3.422053 6.707223 -0.821293
				CHANNELS 3 Yrotation Zrotation Xrotation 
				JOINT lShldr
				{
					OFFSET 3.285171 0.000000 0.000000
					CHANNELS 3 Zrotation Yrotation Xrotation 
					JOINT lForeArm
					{
						OFFSET 10.129278 0.000000 0.000000
						CHANNELS 3 Yrotation Zrotation Xrotation 
						JOINT lHand
						{
							OFFSET 8.486692 0.000000 0.000000
							CHANNELS 3 Zrotation Yrotation Xrotation 
							End Site
							{
								OFFSET 4.106464 0.000000 0.000000
							}
						}
					}
				}
			}
			JOINT rCollar
			{
				OFFSET -3.558935 6.707223 -0.821293
				CHANNELS 3 Yrotation Zrotation Xrotation 
				JOINT rShldr
				{
					OFFSET -3.148289 0.000000 0.000000
					CHANNELS 3 Zrotation Yrotation Xrotation 
					JOINT rForeArm
					{
						OFFSET -10.266159 0.000000 0.000000
						CHANNELS 3 Yrotation Zrotation Xrotation 
						JOINT rHand
						{
							OFFSET -8.349810 0.000000 0.000000
							CHANNELS 3 Zrotation Yrotation Xrotation 
							End Site
							{
								OFFSET -4.106464 0.000000 0.000000
							}
						}
					}
				}
			}
		}
	}
	JOINT lThigh
	{
		OFFSET 5.338403 -1.642589 1.368821
		CHANNELS 3 Xrotation Zrotation Yrotation 
		JOINT lShin
		{
			OFFSET -2.053232 -20.121670 0.000000
			CHANNELS 3 Xrotation Zrotation Yrotation 
			JOINT lFoot
			{
				OFFSET 0.000000 -19.300380 -1.231939
				CHANNELS 3 Xrotation Yrotation Zrotation 
				End Site
				{
					OFFSET 0.000000 -2.463878 4.653993
				}
			}
		}
	}
	JOINT rThigh
	{
		OFFSET -5.338403 -1.642589 1.368821
		CHANNELS 3 Xrotation Zrotation Yrotation 
		JOINT rShin
		{
			OFFSET 2.053232 -20.121670 0.000000
			CHANNELS 3 Xrotation Zrotation Yrotation 
			JOINT rFoot
			{
				OFFSET 0.000000 -19.300380 -1.231939
				CHANNELS 3 Xrotation Yrotation Zrotation 
				End Site
				{
					OFFSET 0.000000 -2.463878 4.653993
				}
			}
		}
	}
}
MOTION
Frames: 18
Frame Time: 0.039918
0.000000 43.528500 0.000000 0.000000 0.000000 0.000000 0.000000 0.000000 0.000000 0.000000 0.000000 0.000000 0.000000 0.000000 0.000000 0.000000 0.000000 0.000000 0.000000 0.000000 0.000000 0.000000 0.000000 0.000000 0.000000 0.000000 0.000000 0.000000 0.000000 0.000000 0.000000 0.000000 0.000000 0.000000 0.000000 0.000000 0.000000 0.000000 0.000000 0.000000 0.000000 0.000000 0.000000 0.000000 0.000000 0.000000 0.000000 0.000000 0.000000 0.000000 0.000000 0.000000 0.000000 0.000000 0.000000 0.000000 0.000000 0.000000 0.000000 0.000000 
19.995884 25.208694 -1.234536 28.997015 0.000000 0.000000 -15.150783 0.213791 -0.421792 23.369450 -0.478626 -1.700704 -19.004614 0.000000 0.000000 -0.407420 0.000000 0.000000 -27.069868 -13.198177 3.206928 -22.095699 10.295577 -5.992056 -50.210220 -48.105156 -11.228053 49.661949 -11.039583 -7.400705 26.352859 12.321627 3.578012 22.263597 -10.472476 -5.937091 54.324242 49.981422 -14.367892 -50.306801 10.727627 -7.062931 -34.082546 11.953355 10.184305 93.864281 1.757223 -0.452947 60.201984 8.931102 -14.975943 -34.110867 -12.059620 -10.265216 93.875252 -1.870755 0.515760 61.196049 -8.762215 15.061236 
19.995884 25.110573 -0.901788 27.131472 0.000000 0.000000 -14.319564 0.213831 -0.421792 23.702639 -0.478796 -1.700696 -19.265661 0.000000 0.000000 -0.809558 0.000000 0.000000 -27.069868 -13.198177 3.206928 -22.217413 10.126248 -6.008942 -49.425941 -47.771206 -10.660836 48.837406 -10.844172 -7.345349 26.352859 12.321627 3.578012 22.263599 -10.472476 -5.937092 53.195782 49.556126 -13.524730 -49.449730 10.565330 -7.053730 -31.159931 11.810763 10.210730 92.872307 1.681626 -0.474389 60.201992 8.931102 -14.975945 -31.166769 -11.919257 -10.297008 92.870163 -1.794854 0.541052 61.196056 -8.762216 15.061236 
19.995884 25.012451 -0.569040 25.257835 0.000000 0.000000 -13.487640 0.213871 -0.421791 24.035868 -0.478966 -1.700689 -19.526817 0.000000 0.000000 -1.212090 0.000000 0.000000 -27.069868 -13.198177 3.206928 -22.339016 9.956873 -6.025454 -48.651245 -47.431961 -10.103801 48.012878 -10.647830 -7.292852 26.352859 12.321627 3.578012 22.263597 -10.472476 -5.937091 52.085854 49.119865 -12.701159 -48.592316 10.402758 -7.046994 -28.206627 11.665444 10.229850 91.879204 1.605577 -0.494541 60.201984 8.931102 -14.975945 -28.191275 -11.775887 -10.321606 91.863907 -1.718427 0.565037 61.196049 -8.762215 15.061236 
19.995884 24.914330 -0.236293 23.377043 0.000000 0.000000 -12.655104 0.213912 -0.421789 24.369137 -0.479137 -1.700682 -19.788076 0.000000 0.000000 -1.615008 0.000000 0.000000 -27.069872 -13.198178 3.206929 -22.460506 9.787456 -6.041591 -47.886078 -47.087528 -9.556904 47.188442 -10.450619 -7.243230 26.352861 12.321628 3.578012 22.263599 -10.472476 -5.937092 50.994507 48.673084 -11.897185 -47.734684 10.239976 -7.042735 -25.226093 11.517924 10.241366 90.885109 1.529109 -0.513390 60.201992 8.931103 -14.975945 -25.187918 -11.630025 -10.338692 90.856621 -1.641507 0.587697 61.196056 -8.762216 15.061236 
19.995884 24.816208 0.096455 21.490084 0.000000 0.000000 -11.822039 0.213952 -0.421787 24.702438 -0.479307 -1.700677 -20.049437 0.000000 0.000000 -2.018301 0.000000 0.000000 -27.069868 -13.198177 3.206928 -22.581896 9.617999 -6.057358 -47.130428 -46.738102 -9.020108 46.364162 -10.252598 -7.196499 26.352859 12.321626 3.578012 22.263597 -10.472475 -5.937091 49.921619 48.216076 -11.112728 -46.876911 10.077041 -7.040955 -22.222012 11.368773 10.245039 89.890152 1.452255 -0.530924 60.201984 8.931103 -14.975943 -22.160458 -11.482230 -10.347991 89.848473 -1.564127 0.609020 61.196049 -8.762214 15.061236 
19.995884 24.718086 0.429202 19.597948 0.000000 0.000000 -10.988531 0.213992 -0.421784 25.035776 -0.479477 -1.700673 -20.310892 0.000000 0.000000 -2.421960 0.000000 0.000000 -27.069868 -13.198177 3.206928 -22.703182 9.448503 -6.072754 -46.384235 -46.383793 -8.493363 45.540115 -10.053827 -7.152671 26.352859 12.321626 3.578012 22.263597 -10.472476 -5.937091 48.867104 47.749226 -10.347702 -46.019051 9.913996 -7.041648 -19.198223 11.218575 10.240672 88.894501 1.375050 -0.547131 60.201984 8.931102 -14.975943 -19.112841 -11.333093 -10.349291 88.839584 -1.486324 0.628992 61.196049 -8.762215 15.061236 
19.995884 24.619965 0.761950 17.701654 0.000000 0.000000 -10.154668 0.214032 -0.421781 25.369129 -0.479647 -1.700670 -20.572443 0.000000 0.000000 -2.825975 0.000000 0.000000 -27.069868 -13.198177 3.206928 -22.824362 9.278972 -6.087777 -45.647415 -46.024746 -7.976592 44.716366 -9.854372 -7.111760 26.352859 12.321627 3.578012 22.263597 -10.472476 -5.937091 47.830875 47.272911 -9.601997 -45.161236 9.750910 -7.044825 -16.158768 11.067965 10.228148 87.898315 1.297528 -0.562002 60.201984 8.931102 -14.975943 -16.049179 -11.183240 -10.342443 87.830124 -1.408132 0.647601 61.196049 -8.762215 15.061236 
19.995884 24.521843 1.094697 15.802236 0.000000 0.000000 -9.320543 0.214072 -0.421777 25.702501 -0.479818 -1.700667 -20.834091 0.000000 0.000000 -3.230338 0.000000 0.000000 -27.069868 -13.198177 3.206928 -22.945448 9.109408 -6.102433 -44.919872 -45.661068 -7.469722 43.893002 -9.654295 -7.073776 26.352859 12.321628 3.578012 22.263599 -10.472476 -5.937092 46.812729 46.787476 -8.875438 -44.303520 9.587828 -7.050476 -13.107786 10.917579 10.207412 86.901726 1.219724 -0.575528 60.201992 8.931102 -14.975945 -12.973727 -11.033308 -10.327368 86.820251 -1.329588 0.664837 61.196049 -8.762216 15.061238 
19.995884 24.423721 1.427445 13.900718 0.000000 0.000000 -8.486239 0.214113 -0.421773 26.035881 -0.479988 -1.700666 -21.095829 0.000000 0.000000 -3.635038 0.000000 0.000000 -27.069868 -13.198177 3.206928 -23.066429 8.939809 -6.116718 -44.201576 -45.292942 -6.972679 43.070057 -9.453654 -7.038722 26.352859 12.321628 3.578012 22.263597 -10.472476 -5.937092 45.812500 46.293293 -8.167845 -43.445988 9.424809 -7.058599 -10.049523 10.768061 10.178470 85.904861 1.141672 -0.587702 60.201984 8.931102 -14.975945 -9.890833 -10.883957 -10.304050 85.810143 -1.250728 0.680689 61.196049 -8.762217 15.061238 
19.995884 24.325600 1.760193 11.998154 0.000000 0.000000 -7.651847 0.214153 -0.421767 26.369270 -0.480158 -1.700666 -21.357651 0.000000 0.000000 -4.040066 0.000000 0.000000 -27.069870 -13.198177 3.206929 -23.187309 8.770180 -6.130633 -43.492424 -44.920483 -6.485380 42.247635 -9.252516 -7.006610 26.352861 12.321629 3.578012 22.263601 -10.472476 -5.937092 44.829994 45.790714 -7.479017 -42.588745 9.261910 -7.069193 -6.988291 10.620061 10.141409 84.907898 1.063409 -0.598517 60.201992 8.931102 -14.975945 -6.804905 -10.735837 -10.272551 84.799911 -1.171588 0.695150 61.196056 -8.762218 15.061238 
19.995884 24.227478 2.092940 10.095589 0.000000 0.000000 -6.817455 0.214193 -0.421762 26.702662 -0.480329 -1.700667 -21.619564 0.000000 0.000000 -4.445412 0.000000 0.000000 -27.069866 -13.198176 3.206929 -23.308104 8.600525 -6.144182 -42.792309 -44.543812 -6.007727 41.425793 -9.050947 -6.977444 26.352856 12.321626 3.578011 22.263597 -10.472474 -5.937091 43.864948 45.280079 -6.808712 -41.731857 9.099187 -7.082248 -3.928422 10.474216 10.096380 83.910950 0.984969 -0.607968 60.201977 8.931100 -14.975942 -3.720387 -10.589598 -10.233002 83.789711 -1.092206 0.708213 61.196049 -8.762215 15.061234 
19.995884 24.129356 2.425688 8.194073 0.000000 0.000000 -5.983153 0.214232 -0.421756 27.036043 -0.480499 -1.700668 -21.881554 0.000000 0.000000 -4.851066 0.000000 0.000000 -27.069868 -13.198177 3.206928 -23.428799 8.430840 -6.157362 -42.101143 -44.163067 -5.539631 40.604603 -8.849008 -6.951226 26.352859 12.321627 3.578012 22.263597 -10.472476 -5.937091 42.917110 44.761734 -6.156677 -40.875427 8.936695 -7.097759 -0.874246 10.331145 10.043607 82.914207 0.906388 -0.616052 60.201984 8.931102 -14.975943 -0.641712 -10.445866 -10.185596 82.779732 -1.012618 0.719872 61.196049 -8.762215 15.061236 
19.995884 24.031235 2.758435 6.294648 0.000000 0.000000 -5.149026 0.214272 -0.421749 27.369411 -0.480669 -1.700671 -22.143629 0.000000 0.000000 -5.257019 0.000000 0.000000 -27.069868 -13.198177 3.206928 -23.549398 8.261131 -6.170175 -41.418846 -43.778408 -5.080994 39.784126 -8.646760 -6.927956 26.352859 12.321627 3.578012 22.263597 -10.472476 -5.937091 41.986217 44.236019 -5.522646 -40.019520 8.774484 -7.115712 2.169962 10.191440 9.983369 81.917809 0.827703 -0.622765 60.201984 8.931102 -14.975943 2.426742 -10.305253 -10.130611 81.770103 -0.932862 0.730123 61.196049 -8.762215 15.061236 
19.995884 23.933113 3.091183 4.398357 0.000000 0.000000 -4.315166 0.214312 -0.421741 27.702772 -0.480840 -1.700675 -22.405777 0.000000 0.000000 -5.663260 0.000000 0.000000 -27.069868 -13.198177 3.206928 -23.669903 8.091399 -6.182621 -40.745274 -43.389915 -4.631704 38.964432 -8.444269 -6.907634 26.352859 12.321627 3.578012 22.263599 -10.472476 -5.937092 41.071976 43.703255 -4.906335 -39.164234 8.612615 -7.136099 5.199999 10.055653 9.916012 80.921883 0.748949 -0.628106 60.201984 8.931102 -14.975943 5.480674 -10.168323 -10.068367 80.760986 -0.852976 0.738963 61.196056 -8.762215 15.061236 
19.995884 23.834991 3.423931 2.506224 0.000000 0.000000 -3.481657 0.214351 -0.421733 28.036100 -0.481010 -1.700680 -22.667999 0.000000 0.000000 -6.069778 0.000000 0.000000 -27.069870 -13.198177 3.206929 -23.790319 7.921646 -6.194701 -40.080341 -42.997742 -4.191659 38.145596 -8.241601 -6.890260 26.352859 12.321627 3.578012 22.263599 -10.472476 -5.937092 40.174107 43.163788 -4.307453 -38.309654 8.451140 -7.158908 8.211788 9.924301 9.841933 79.926590 0.670162 -0.632076 60.201984 8.931102 -14.975945 8.515911 -10.035608 -9.999251 79.752525 -0.772996 0.746390 61.196056 -8.762216 15.061238 
19.995884 23.736870 3.756678 0.619265 0.000000 0.000000 -2.648592 0.214391 -0.421725 28.369406 -0.481180 -1.700686 -22.930296 0.000000 0.000000 -6.476565 0.000000 0.000000 -27.069870 -13.198177 3.206929 -23.910652 7.751875 -6.206417 -39.423946 -42.602024 -3.760746 37.327663 -8.038815 -6.875827 26.352861 12.321628 3.578012 22.263601 -10.472476 -5.937092 39.292294 42.617943 -3.725692 -37.455856 8.290112 -7.184121 11.201384 9.797839 9.761573 78.932076 0.591378 -0.634675 60.201992 8.931102 -14.975945 11.528423 -9.907588 -9.923694 78.744904 -0.692960 0.752404 61.196056 -8.762215 15.061236 
19.995884 23.638748 4.089426 -1.261525 0.000000 0.000000 -1.816053 0.214430 -0.421716 28.702675 -0.481350 -1.700692 -23.192663 0.000000 0.000000 -6.883613 0.000000 0.000000 -27.069868 -13.198176 3.206929 -24.030895 7.582088 -6.217768 -38.775959 -42.202877 -3.338848 36.510723 -7.835978 -6.864332 26.352859 12.321626 3.578012 22.263597 -10.472475 -5.937091 38.426216 42.066010 -3.160736 -36.602928 8.129586 -7.211728 14.165030 9.676685 9.675417 77.938477 0.512633 -0.635905 60.201984 8.931103 -14.975943 14.514376 -9.784692 -9.842169 77.738205 -0.612906 0.757005 61.196049 -8.762215 15.061236 
